<?xml version="1.0" encoding="UTF-8"?>
<svg width="47px" height="21px" viewBox="0 0 47 21" version="1.1" xmlns="http://www.w3.org/2000/svg" xmlns:xlink="http://www.w3.org/1999/xlink">
    <title>cloudflare-logo-1.18cb0198@2x</title>
    <g id="Page-1" stroke="none" stroke-width="1" fill="none" fill-rule="evenodd">
        <g id="cloudflare-logo-1.18cb0198" fill="#EA4D3D" fill-rule="nonzero">
            <path d="M31.8974017,20.7119424 L32.1359739,19.8899292 C32.4191391,18.9128193 32.3143457,18.0110421 31.8372012,17.3463415 C31.3912718,16.7348169 30.6644068,16.3758786 29.7747776,16.3337809 L12.9342529,16.1210767 C12.8270061,16.1195487 12.7272973,16.0659721 12.6672895,15.977629 C12.6072816,15.8892858 12.5945683,15.7773554 12.6332505,15.6779429 C12.6917501,15.510261 12.8452822,15.3934364 13.0234388,15.3810433 L30.0267277,15.1594764 C32.0334101,15.068634 34.2273829,13.4423331 34.9921519,11.4570939 L35.9598187,8.94009414 C35.9872919,8.86945736 36.0009146,8.79425034 36,8.71852727 C35.9988001,8.67834831 35.9943257,8.63833149 35.9865745,8.59888115 C34.9016915,3.78794201 30.7293741,0.281038538 25.7751887,0.0160383507 C20.8210034,-0.248961837 16.2939732,2.79261211 14.6956741,7.4600274 C13.0037848,6.210348 10.7036247,6.15379005 8.95161001,7.31878834 C7.19959535,8.48378662 6.37480623,10.6182727 6.89190922,12.6491237 C4.86521034,12.7011816 2.95837442,13.6147698 1.65520259,15.1580934 C0.352030756,16.7014169 -0.222235009,18.7261539 0.0781076182,20.7185894 C0.100316778,20.8793061 0.238159509,20.9992804 0.401406451,21 L31.5027541,21 L31.5027541,21 C31.684101,21.0017915 31.844887,20.8844404 31.8974017,20.7119424 Z" id="Path"></path>
            <path d="M37.6036675,9 C37.4520267,9 37.2928039,9.0044734 37.1259991,9.0134202 C37.1009539,9.01411362 37.0762637,9.01942458 37.0532115,9.02907711 C36.9688072,9.05657932 36.9039471,9.12371527 36.880341,9.20801316 L36.1979576,11.5028681 C35.9068073,12.489253 36.0137141,13.3995902 36.5027555,14.0706004 C37.0035846,14.7141536 37.780392,15.0919504 38.6044965,15.0927726 L42.2688955,15.3164427 C42.3728141,15.3195802 42.4690465,15.3710448 42.5282013,15.4551181 C42.5909645,15.5450128 42.6053857,15.6592934 42.5668696,15.7615461 C42.5071903,15.9308197 42.3505621,16.0487533 42.1688126,16.061264 L38.3633877,16.2849341 C36.2957659,16.3788755 34.0689213,18.0183771 33.2887296,20.0202242 L33.0135016,20.7270216 C32.9901658,20.7870359 32.997366,20.8543987 33.032881,20.9083306 C33.068396,20.9622624 33.1279588,20.9962835 33.1931959,21 L46.3017816,21 C46.4663573,21.0037831 46.61176,20.895156 46.6520718,20.7382051 C47.4442164,17.954527 46.8669297,14.9667445 45.0917596,12.6627148 C43.3165895,10.3586851 40.5478166,9.00354813 37.6082167,9 L37.6036675,9 Z" id="Path"></path>
        </g>
    </g>
</svg>