<?xml version="1.0" encoding="UTF-8"?>
<svg width="118px" height="52px" viewBox="0 0 118 52" version="1.1" xmlns="http://www.w3.org/2000/svg" xmlns:xlink="http://www.w3.org/1999/xlink">
    <title>cloudflare-logo-1.18cb0198</title>
    <g id="Page-1" stroke="none" stroke-width="1" fill="none" fill-rule="evenodd">
        <g id="cloudflare-logo-1.18cb0198" fill="#EA4D3D" fill-rule="nonzero">
            <path d="M78.8573707,51.2866651 L79.4471735,49.2512058 C80.14722,46.8316979 79.8881477,44.5987279 78.7085419,42.9528042 C77.6061066,41.4385543 75.809137,40.5497556 73.6097786,40.4455137 L31.9763091,39.9188181 C31.7111715,39.9150345 31.4646695,39.7823688 31.316317,39.5636146 C31.1679644,39.3448603 31.1365343,39.0676995 31.2321652,38.8215355 C31.376789,38.4063236 31.756354,38.1170439 32.1967962,38.0863562 L74.2326544,37.5377149 C79.1936133,37.3127721 84.6175951,33.2857451 86.5082718,28.3699195 L88.9005563,22.1373546 C88.968476,21.9624447 89.0021543,21.776218 89,21.5887134 C88.9969268,21.4892227 88.9858651,21.3901336 88.9667025,21.2924471 C86.2846338,9.37965689 75.9697504,0.695904281 63.7219179,0.0397139731 C51.4740856,-0.616476336 40.2822743,6.91503285 36.3309285,18.472431 C32.1482072,15.3779898 26.4617071,15.2379416 22.1303426,18.1226965 C17.7989783,21.0074514 15.7599187,26.2928404 17.0383107,31.3216095 C12.0278667,31.4505146 7.31375021,33.7127308 4.09202372,37.5342904 C0.870297214,41.3558496 -0.549413669,46.3694793 0.193099158,51.3031243 C0.24800507,51.7010891 0.588782524,51.998168 0.992364758,52 L77.8817153,52 L77.8817153,52 C78.3300446,52.004386 78.7275429,51.7138026 78.8573707,51.2866651 Z" id="Path"></path>
            <path d="M94.5091688,23 C94.1300668,23 93.7320098,23.0108106 93.3149978,23.0324319 C93.2523848,23.0341076 93.1906593,23.0469424 93.1330288,23.0702691 C92.922018,23.1367323 92.7598678,23.2989762 92.7008525,23.5026945 L90.994894,29.0485496 C90.2670182,31.4322941 90.5342852,33.6322581 91.7568887,35.2538531 C93.0089615,36.8090943 94.95098,37.7220959 97.0112413,37.7240829 L106.172239,38.2646147 C106.432035,38.2721969 106.672616,38.3965687 106.820503,38.5997442 C106.977411,38.816988 107.013464,39.0931639 106.917174,39.3402726 C106.767976,39.7493472 106.376405,40.0343512 105.922032,40.0645851 L96.4084693,40.6051169 C91.2394147,40.8321401 85.6723032,44.7942373 83.721824,49.6319959 L83.033754,51.340076 C82.9754145,51.4851094 82.993415,51.6479015 83.0822025,51.7782359 C83.17099,51.90857 83.319897,51.990787 83.4829897,52 L116.254454,52 C116.665893,52.0089109 117.0294,51.7463975 117.13018,51.3671025 C119.110541,44.6399342 117.667324,37.4195174 113.229399,31.8514901 C108.791474,26.2834628 101.869542,23.0085746 94.5205418,23 L94.5091688,23 Z" id="Path"></path>
        </g>
    </g>
</svg>